<svg width="756" height="411" viewBox="0 0 756 411" fill="none" xmlns="http://www.w3.org/2000/svg">
<path d="M0.173359 11.8422H22.9862V117H0.173359V11.8422ZM70.9861 59.0304C58.486 59.0304 52.8609 69.1868 52.8609 81.062V117H30.6731V78.4057C30.6731 55.9054 43.9545 37.4676 70.9861 37.4676C98.0178 37.4676 111.612 55.7491 111.612 78.4057V117H89.4239V81.062C89.4239 69.1868 83.6426 59.0304 70.9861 59.0304ZM145.006 117H122.818V58.4054H109.068V39.6551H122.818V35.5926C122.818 16.9986 133.912 2.4671 156.568 2.4671C161.725 2.4671 167.037 3.40461 170.944 5.12339V25.5924C167.35 23.4049 162.662 22.3111 158.6 22.3111C150.162 22.3111 145.006 26.5299 145.006 35.2801V39.6551H169.694V58.4054H145.006V117ZM202.647 119.031C178.897 119.031 160.771 100.594 160.771 78.0932C160.771 55.7491 179.053 37.3113 202.647 37.3113C226.554 37.3113 244.679 55.9054 244.679 78.0932C244.679 100.594 226.397 119.031 202.647 119.031ZM202.647 98.2497C214.053 98.2497 222.491 89.1871 222.491 78.2494C222.491 67.3118 214.053 58.2492 202.647 58.2492C191.241 58.2492 182.959 67.3118 182.959 78.2494C182.959 89.1871 191.241 98.2497 202.647 98.2497ZM265.999 117H243.811V72.6244C243.811 52.7803 255.061 37.6239 278.03 37.6239C283.03 37.6239 288.499 38.5614 292.405 40.2801V61.843C288.655 59.6554 284.124 58.5617 280.061 58.5617C271.311 58.5617 265.999 64.1867 265.999 73.4056V117ZM383.824 36.8426C408.981 36.8426 421.793 54.9679 421.793 76.5307V117H399.605V80.2807C399.605 68.4055 394.449 58.4054 382.261 58.4054C370.23 58.4054 365.074 68.2493 365.074 79.9682V117H342.886V80.1245C342.886 68.2493 337.729 58.4054 325.698 58.4054C313.354 58.4054 308.51 68.4055 308.51 80.1245V117H286.322V76.5307C286.322 54.9679 298.979 36.8426 323.979 36.8426C338.823 36.8426 349.605 43.4052 354.136 54.0303C358.98 43.4052 369.917 36.8426 383.824 36.8426ZM459.189 119.031C436.688 119.031 420.907 100.594 420.907 78.0932C420.907 55.9054 439.032 37.3113 462.783 37.3113C487.002 37.3113 504.814 54.8116 504.814 78.0932V117H483.72V107.937C478.252 114.812 469.814 119.031 459.189 119.031ZM462.783 98.2497C474.189 98.2497 482.627 89.1871 482.627 78.2494C482.627 67.3118 474.189 58.2492 462.783 58.2492C451.376 58.2492 443.095 67.3118 443.095 78.2494C443.095 89.1871 451.376 98.2497 462.783 98.2497ZM547.606 119.188C525.261 119.188 514.168 105.75 514.168 86.3746V58.4054H499.949V39.6551H514.168V19.9673H536.355V39.6551H563.699V58.4054H536.355V85.7496C536.355 94.3434 541.512 99.3435 549.637 99.3435C554.168 99.3435 559.949 97.9372 563.699 95.5934V115.437C559.793 117.938 553.074 119.188 547.606 119.188ZM578.225 28.0925C570.725 28.0925 564.475 21.9986 564.475 14.3423C564.475 6.84216 570.725 0.592069 578.225 0.592069C585.725 0.592069 591.819 6.84216 591.819 14.3423C591.819 21.9986 585.725 28.0925 578.225 28.0925ZM567.131 39.6551H589.319V117H567.131V39.6551ZM633.348 119.031C609.597 119.031 591.472 100.594 591.472 78.0932C591.472 55.7491 609.754 37.3113 633.348 37.3113C657.254 37.3113 675.38 55.9054 675.38 78.0932C675.38 100.594 657.098 119.031 633.348 119.031ZM633.348 98.2497C644.754 98.2497 653.192 89.1871 653.192 78.2494C653.192 67.3118 644.754 58.2492 633.348 58.2492C621.941 58.2492 613.66 67.3118 613.66 78.2494C613.66 89.1871 621.941 98.2497 633.348 98.2497ZM714.825 59.0304C702.325 59.0304 696.699 69.1868 696.699 81.062V117H674.512V78.4057C674.512 55.9054 687.793 37.4676 714.825 37.4676C741.856 37.4676 755.45 55.7491 755.45 78.4057V117H733.263V81.062C733.263 69.1868 727.481 59.0304 714.825 59.0304ZM325.83 245H285.517V139.842H326.142C352.393 139.842 368.174 150.78 368.174 168.749C368.174 180.78 361.768 188.905 351.768 192.655C362.237 195.624 369.268 202.343 369.268 215.625C369.268 236.25 350.986 245 325.83 245ZM308.33 158.593V183.593H327.236C339.736 183.593 345.361 179.218 345.361 170.624C345.361 162.811 339.111 158.593 327.392 158.593H308.33ZM308.33 202.343V226.25H327.08C338.174 226.25 346.455 223.75 346.455 214.062C346.455 205.156 340.049 202.343 327.236 202.343H308.33ZM405.63 247.031C383.129 247.031 367.348 228.594 367.348 206.093C367.348 183.905 385.473 165.311 409.223 165.311C433.442 165.311 451.255 182.812 451.255 206.093V245H430.161V235.937C424.692 242.812 416.255 247.031 405.63 247.031ZM409.223 226.25C420.63 226.25 429.067 217.187 429.067 206.249C429.067 195.312 420.63 186.249 409.223 186.249C397.817 186.249 389.536 195.312 389.536 206.249C389.536 217.187 397.817 226.25 409.223 226.25ZM491.859 247.031C468.577 247.188 450.296 228.594 450.296 206.249C450.296 183.749 468.577 165.311 491.859 165.468C506.703 165.624 520.453 172.343 527.484 187.343L509.203 197.343C505.765 190.624 499.515 186.405 491.859 186.405C480.765 186.405 472.484 195.312 472.484 206.249C472.484 217.187 480.765 226.093 491.859 226.093C499.515 226.093 505.765 221.875 509.203 215.156L527.484 225.156C520.453 240.156 506.703 246.875 491.859 247.031ZM550.408 245H528.22V132.03H550.408V197.656H557.752C558.533 196.249 559.471 194.843 560.565 193.437L581.971 167.655H608.378L576.19 206.093L608.222 245H581.815L560.408 218.75C559.315 217.343 558.377 215.781 557.596 214.218H550.408V245ZM638.085 247.031C614.022 247.031 595.897 230.312 595.897 205.624C595.897 183.28 612.147 164.843 636.054 164.843C660.586 164.843 674.805 182.968 674.805 204.062V210.625H617.304C618.866 220.937 626.835 227.812 637.929 227.812C646.367 227.812 653.398 223.75 656.992 216.562L674.023 225.156C667.304 239.062 654.492 247.031 638.085 247.031ZM618.241 198.281H652.773C651.835 190.312 645.273 184.218 635.898 184.218C626.21 184.218 619.804 190.468 618.241 198.281ZM713.396 247.188C689.646 247.188 671.521 228.75 671.521 206.406C671.521 182.343 688.084 165.468 712.146 165.468C719.959 165.468 727.459 168.28 733.084 172.811L733.24 132.03H755.428V206.406C755.428 229.844 737.616 247.188 713.396 247.188ZM713.396 226.25C724.803 226.25 733.24 217.343 733.24 206.406C733.24 195.468 724.803 186.405 713.396 186.405C701.99 186.405 693.709 195.468 693.709 206.406C693.709 217.343 701.99 226.25 713.396 226.25ZM316.215 375.031C297.309 375.031 282.152 367.062 275.434 352.062L294.496 342.531C297.934 350.187 305.278 354.093 316.215 354.093C326.059 354.093 333.559 350.031 333.559 342.531C333.559 333.781 325.278 332.374 314.34 330.499C298.559 327.843 277.152 322.218 277.152 298.468C277.152 280.03 293.715 265.967 315.434 265.967C332.778 265.967 347.778 273.936 354.497 288.936L335.434 298.468C331.997 291.749 325.122 287.061 314.497 287.061C305.903 287.061 299.965 291.124 299.965 297.53C299.965 305.968 308.715 308.155 320.122 310.187C335.747 312.843 356.372 318.468 356.372 342.375C356.372 361.281 338.56 375.031 316.215 375.031ZM391.591 375.031C369.091 375.031 353.31 356.594 353.31 334.093C353.31 311.905 371.435 293.311 395.185 293.311C419.404 293.311 437.217 310.812 437.217 334.093V373H416.123V363.937C410.654 370.812 402.216 375.031 391.591 375.031ZM395.185 354.25C406.592 354.25 415.029 345.187 415.029 334.249C415.029 323.312 406.592 314.249 395.185 314.249C383.779 314.249 375.497 323.312 375.497 334.249C375.497 345.187 383.779 354.25 395.185 354.25ZM470.633 373H448.445V314.405H434.695V295.655H448.445V291.593C448.445 272.999 459.539 258.467 482.196 258.467C487.352 258.467 492.665 259.405 496.571 261.123V281.592C492.977 279.405 488.289 278.311 484.227 278.311C475.789 278.311 470.633 282.53 470.633 291.28V295.655H495.321V314.405H470.633V373ZM528.587 375.031C504.524 375.031 486.399 358.312 486.399 333.624C486.399 311.28 502.649 292.843 526.555 292.843C551.087 292.843 565.306 310.968 565.306 332.062V338.625H507.805C509.368 348.937 517.337 355.812 528.43 355.812C536.868 355.812 543.899 351.75 547.493 344.562L564.525 353.156C557.806 367.062 544.993 375.031 528.587 375.031ZM508.743 326.281H543.274C542.337 318.312 535.774 312.218 526.399 312.218C516.712 312.218 510.305 318.468 508.743 326.281ZM605.773 375.188C583.429 375.188 572.335 361.75 572.335 342.375V314.405H558.116V295.655H572.335V275.967H594.523V295.655H621.867V314.405H594.523V341.75C594.523 350.343 599.679 355.343 607.804 355.343C612.335 355.343 618.117 353.937 621.867 351.593V371.437C617.961 373.938 611.242 375.188 605.773 375.188ZM659.518 410.813C641.08 410.813 627.642 403 620.611 388.625L638.892 378.625C642.33 385.344 649.205 390.5 659.205 390.5C672.486 390.5 680.143 380.813 680.143 366.437V364.25C675.924 370.5 669.049 373.938 659.518 373.938C634.361 373.938 623.423 357.844 623.423 334.874V295.655H645.299V334.093C645.299 345.343 651.392 353 662.33 353C672.33 353 679.83 344.718 679.83 333.624V295.655H702.331V366.125C702.331 393.157 684.987 410.813 659.518 410.813ZM723.657 374.719C716 374.719 709.906 368.469 709.906 360.969C709.906 353.468 716 347.218 723.657 347.218C731.157 347.218 737.251 353.468 737.251 360.969C737.251 368.469 731.157 374.719 723.657 374.719Z" fill="white"/>
</svg>
