<svg width="267" height="80" viewBox="0 0 267 80" fill="none" xmlns="http://www.w3.org/2000/svg">
<path d="M17.7033 79.9028C9.49605 79.9028 2.91664 76.4435 0 69.9319L8.27513 65.7944C9.76736 69.118 12.9553 70.8137 17.7033 70.8137C21.9766 70.8137 25.2324 69.0501 25.2324 65.7944C25.2324 61.9959 21.6374 61.3855 16.8894 60.5715C10.0387 59.4184 0.746118 56.9766 0.746118 46.6666C0.746118 38.6628 7.93598 32.5582 17.3642 32.5582C24.8932 32.5582 31.4048 36.0175 34.3214 42.529L26.0463 46.6666C24.5541 43.75 21.5696 41.7151 16.9572 41.7151C13.2266 41.7151 10.6491 43.4786 10.6491 46.2596C10.6491 49.9224 14.4476 50.872 19.3991 51.7538C26.182 52.9069 35.1354 55.3487 35.1354 65.7265C35.1354 73.9338 27.4029 79.9028 17.7033 79.9028Z" fill="#0D3575"/>
<path d="M50.4239 79.9028C40.6565 79.9028 33.8058 71.899 33.8058 62.1316C33.8058 52.4999 41.674 44.4282 51.984 44.4282C62.4974 44.4282 70.2299 52.0251 70.2299 62.1316V79.021H61.073V75.0869C58.699 78.0714 55.0363 79.9028 50.4239 79.9028ZM51.984 70.8815C56.9355 70.8815 60.5982 66.9474 60.5982 62.1994C60.5982 57.4514 56.9355 53.5173 51.984 53.5173C47.0325 53.5173 43.4375 57.4514 43.4375 62.1994C43.4375 66.9474 47.0325 70.8815 51.984 70.8815Z" fill="#0D3575"/>
<path d="M84.7358 79.021H75.1041V53.5851H66.6578L55.2646 45.4457H75.1041V43.6821C75.1041 35.6105 79.9199 29.3024 89.7551 29.3024C91.9935 29.3024 120.517 29.3024 122.564 29.3024V37.9167C120.782 37.9167 92.4005 37.9167 90.6369 37.9167C86.9741 37.9167 84.7358 39.748 84.7358 43.5465V45.4457H107.461L95.4528 53.5851H84.7358V79.021Z" fill="#0D3575"/>
<path d="M109.893 79.9028C99.4478 79.9028 91.5796 72.6451 91.5796 61.9281C91.5796 52.2286 98.6338 44.2248 109.012 44.2248C119.661 44.2248 125.833 52.0929 125.833 61.2498V64.0986H100.872C101.55 68.5753 105.01 71.5598 109.826 71.5598C113.488 71.5598 116.541 69.7963 118.101 66.6761L125.494 70.4067C122.577 76.4435 117.015 79.9028 109.893 79.9028ZM101.279 58.7401H116.269C115.862 55.2809 113.014 52.6355 108.944 52.6355C104.738 52.6355 101.957 55.3487 101.279 58.7401Z" fill="#0D3575"/>
<path d="M137.092 79.021H127.46V29.9807H137.092V47.4805C139.601 45.6492 142.925 44.4961 146.588 44.4961C156.83 44.4961 162.188 51.0076 162.188 61.589V79.021L152.557 78.9532V62.5386C152.557 57.7905 149.979 53.5851 145.096 53.5851C140.28 53.5851 137.092 57.3836 137.092 62.6742V79.021Z" fill="#0D3575"/>
<path d="M180.051 79.9028C169.741 79.9028 161.873 71.899 161.873 62.1316C161.873 52.4321 169.809 44.4282 180.051 44.4282C190.429 44.4282 198.297 52.4999 198.297 62.1316C198.297 71.899 190.361 79.9028 180.051 79.9028ZM180.051 70.8815C185.002 70.8815 188.665 66.9474 188.665 62.1994C188.665 57.4514 185.002 53.5173 180.051 53.5173C175.099 53.5173 171.504 57.4514 171.504 62.1994C171.504 66.9474 175.099 70.8815 180.051 70.8815Z" fill="#0D3575"/>
<path d="M214.402 79.9028C204.092 79.9028 196.224 71.899 196.224 62.1316C196.224 52.4321 204.16 44.4282 214.402 44.4282C224.78 44.4282 232.648 52.4999 232.648 62.1316C232.648 71.899 224.712 79.9028 214.402 79.9028ZM214.402 70.8815C219.354 70.8815 223.017 66.9474 223.017 62.1994C223.017 57.4514 219.354 53.5173 214.402 53.5173C209.451 53.5173 205.856 57.4514 205.856 62.1994C205.856 66.9474 209.451 70.8815 214.402 70.8815Z" fill="#0D3575"/>
<path d="M248.754 79.9706C238.444 79.9706 230.576 71.9668 230.576 62.2672C230.576 51.8216 237.766 44.4961 248.211 44.4961C251.603 44.4961 254.859 45.717 257.3 47.684L257.368 29.9807H267V62.2672C267 72.4416 259.267 79.9706 248.754 79.9706ZM248.754 70.8815C253.706 70.8815 257.368 67.0153 257.368 62.2672C257.368 57.5192 253.706 53.5851 248.754 53.5851C243.803 53.5851 240.208 57.5192 240.208 62.2672C240.208 67.0153 243.803 70.8815 248.754 70.8815Z" fill="#0D3575"/>
<path d="M196.032 5.08301C196.764 4.69105 197.634 4.66655 198.384 5.00977L198.532 5.08301L247.656 31.377C250.085 32.6776 249.162 36.3632 246.406 36.3633H148.157C145.487 36.3633 144.536 32.9045 146.689 31.5059L146.907 31.377L196.032 5.08301Z" stroke="#0D3575" stroke-width="9.53844"/>
</svg>
