<svg width="63" height="63" viewBox="0 0 63 63" fill="none" xmlns="http://www.w3.org/2000/svg">
<path d="M27.4355 4.48438C29.0081 1.56302 33.3365 1.66042 34.7256 4.77637L40.2852 17.248L40.3574 17.3857C40.5459 17.6916 40.8675 17.8963 41.2305 17.9346L54.8096 19.3682L55.1309 19.4141C58.2902 19.9876 59.5583 23.8898 57.3398 26.2109L57.1064 26.4375L46.9629 35.5781C46.6529 35.8575 46.5151 36.2812 46.6016 36.6895L49.4346 50.0469L49.4902 50.3672C49.9211 53.5491 46.6021 55.961 43.709 54.5684L43.4209 54.416L31.5928 47.5938C31.2766 47.4116 30.8966 47.3888 30.5645 47.5254L30.4248 47.5938L18.5967 54.416C15.5461 56.1755 11.8523 53.4919 12.583 50.0469L15.416 36.6895L15.4385 36.5361C15.462 36.2288 15.3628 35.9242 15.1631 35.6895L15.0557 35.5781L4.91211 26.4375C2.29606 24.0799 3.7068 19.7378 7.20898 19.3682L20.7881 17.9346L20.9404 17.9082C21.2899 17.8236 21.5847 17.5817 21.7334 17.248L27.293 4.77637L27.4355 4.48438Z" fill="#0D3575" stroke="#CDE0FF" stroke-width="2.89979"/>
<path d="M20.8599 30.3587L26.1831 36.8027L41.1674 25.1627" stroke="#CDE0FF" stroke-width="3.32496" stroke-linecap="round"/>
</svg>
